<?xml version="1.0" encoding="UTF-8" standalone="no"?>
<!DOCTYPE svg PUBLIC "-//W3C//DTD SVG 1.1//EN"
 "http://www.w3.org/Graphics/SVG/1.1/DTD/svg11.dtd">
<!-- Generated by graphviz version 2.40.1 (20161225.0304)
 -->
<!-- Title: %0 Pages: 1 -->
<svg width="915pt" height="1016pt"
 viewBox="0.00 0.00 914.84 1016.00" xmlns="http://www.w3.org/2000/svg" xmlns:xlink="http://www.w3.org/1999/xlink">
<g id="graph0" class="graph" transform="scale(1 1) rotate(0) translate(144 872)">
<title>%0</title>
<polygon fill="#ffffff" stroke="transparent" points="-144,144 -144,-872 770.836,-872 770.836,144 -144,144"/>
<!-- lotteries -->
<g id="node1" class="node">
<title>lotteries</title>
<polygon fill="#4477c9" stroke="transparent" points="286.533,-250 286.533,-568 389.533,-568 389.533,-250 286.533,-250"/>
<polygon fill="#add8e6" stroke="transparent" points="287.033,-550 287.033,-568 390.033,-568 390.033,-550 287.033,-550"/>
<polygon fill="none" stroke="#000000" points="287.033,-550 287.033,-568 390.033,-568 390.033,-550 287.033,-550"/>
<text text-anchor="start" x="321.7876" y="-556.9" font-family="Times,serif" font-weight="bold" font-style="italic" font-size="9.00" fill="#000000"> lotteries </text>
<polygon fill="none" stroke="#000000" points="287.033,-530 287.033,-550 390.033,-550 390.033,-530 287.033,-530"/>
<text text-anchor="start" x="292.033" y="-536.9" font-family="Times,serif" font-size="9.00" fill="#000000">stationId: ObjectID</text>
<polygon fill="none" stroke="#000000" points="287.033,-510 287.033,-530 390.033,-530 390.033,-510 287.033,-510"/>
<text text-anchor="start" x="292.033" y="-516.9" font-family="Times,serif" font-size="9.00" fill="#000000">date: String</text>
<polygon fill="none" stroke="#000000" points="287.033,-490 287.033,-510 390.033,-510 390.033,-490 287.033,-490"/>
<text text-anchor="start" x="292.033" y="-496.9" font-family="Times,serif" font-size="9.00" fill="#000000">imgUrl: String</text>
<polygon fill="none" stroke="#000000" points="287.033,-470 287.033,-490 390.033,-490 390.033,-470 287.033,-470"/>
<text text-anchor="start" x="292.033" y="-476.9" font-family="Times,serif" font-size="9.00" fill="#000000">result.jackpot: Array</text>
<polygon fill="none" stroke="#000000" points="287.033,-450 287.033,-470 390.033,-470 390.033,-450 287.033,-450"/>
<text text-anchor="start" x="292.033" y="-456.9" font-family="Times,serif" font-size="9.00" fill="#000000">result.signJackpot: Array</text>
<polygon fill="none" stroke="#000000" points="287.033,-430 287.033,-450 390.033,-450 390.033,-430 287.033,-430"/>
<text text-anchor="start" x="292.033" y="-436.9" font-family="Times,serif" font-size="9.00" fill="#000000">result.firstNum: Array</text>
<polygon fill="none" stroke="#000000" points="287.033,-410 287.033,-430 390.033,-430 390.033,-410 287.033,-410"/>
<text text-anchor="start" x="292.033" y="-416.9" font-family="Times,serif" font-size="9.00" fill="#000000">result.secondNum: Array</text>
<polygon fill="none" stroke="#000000" points="287.033,-390 287.033,-410 390.033,-410 390.033,-390 287.033,-390"/>
<text text-anchor="start" x="292.033" y="-396.9" font-family="Times,serif" font-size="9.00" fill="#000000">result.thirdNum: Array</text>
<polygon fill="none" stroke="#000000" points="287.033,-370 287.033,-390 390.033,-390 390.033,-370 287.033,-370"/>
<text text-anchor="start" x="292.033" y="-376.9" font-family="Times,serif" font-size="9.00" fill="#000000">result.fourthNum: Array</text>
<polygon fill="none" stroke="#000000" points="287.033,-350 287.033,-370 390.033,-370 390.033,-350 287.033,-350"/>
<text text-anchor="start" x="292.033" y="-356.9" font-family="Times,serif" font-size="9.00" fill="#000000">result.fifthNum: Array</text>
<polygon fill="none" stroke="#000000" points="287.033,-330 287.033,-350 390.033,-350 390.033,-330 287.033,-330"/>
<text text-anchor="start" x="292.033" y="-336.9" font-family="Times,serif" font-size="9.00" fill="#000000">result.sixthNum: Array</text>
<polygon fill="none" stroke="#000000" points="287.033,-310 287.033,-330 390.033,-330 390.033,-310 287.033,-310"/>
<text text-anchor="start" x="291.7987" y="-316.9" font-family="Times,serif" font-size="9.00" fill="#000000">result.seventhNum: Array</text>
<polygon fill="none" stroke="#000000" points="287.033,-290 287.033,-310 390.033,-310 390.033,-290 287.033,-290"/>
<text text-anchor="start" x="292.033" y="-296.9" font-family="Times,serif" font-size="9.00" fill="#000000">result.eighthNum: Array</text>
<polygon fill="none" stroke="#000000" points="287.033,-270 287.033,-290 390.033,-290 390.033,-270 287.033,-270"/>
<text text-anchor="start" x="292.033" y="-276.9" font-family="Times,serif" font-size="9.00" fill="#000000">_id: ObjectID</text>
<polygon fill="none" stroke="#000000" points="287.033,-250 287.033,-270 390.033,-270 390.033,-250 287.033,-250"/>
<text text-anchor="start" x="292.033" y="-256.9" font-family="Times,serif" font-size="9.00" fill="#000000">__v: Number</text>
</g>
<!-- tickets -->
<g id="node3" class="node">
<title>tickets</title>
<polygon fill="#4477c9" stroke="transparent" points="547.836,-17 547.836,-175 626.836,-175 626.836,-17 547.836,-17"/>
<polygon fill="#add8e6" stroke="transparent" points="548.336,-157 548.336,-175 627.336,-175 627.336,-157 548.336,-157"/>
<polygon fill="none" stroke="#000000" points="548.336,-157 548.336,-175 627.336,-175 627.336,-157 548.336,-157"/>
<text text-anchor="start" x="573.8392" y="-163.9" font-family="Times,serif" font-weight="bold" font-style="italic" font-size="9.00" fill="#000000"> tickets </text>
<polygon fill="none" stroke="#000000" points="548.336,-137 548.336,-157 627.336,-157 627.336,-137 548.336,-137"/>
<text text-anchor="start" x="553.336" y="-143.9" font-family="Times,serif" font-size="9.00" fill="#000000">ticket: String</text>
<polygon fill="none" stroke="#000000" points="548.336,-117 548.336,-137 627.336,-137 627.336,-117 548.336,-117"/>
<text text-anchor="start" x="553.336" y="-123.9" font-family="Times,serif" font-size="9.00" fill="#000000">date: String</text>
<polygon fill="none" stroke="#000000" points="548.336,-97 548.336,-117 627.336,-117 627.336,-97 548.336,-97"/>
<text text-anchor="start" x="553.336" y="-103.9" font-family="Times,serif" font-size="9.00" fill="#000000">result: Boolean</text>
<polygon fill="none" stroke="#000000" points="548.336,-77 548.336,-97 627.336,-97 627.336,-77 548.336,-77"/>
<text text-anchor="start" x="553.2238" y="-83.9" font-family="Times,serif" font-size="9.00" fill="#000000">lotteryId: ObjectID</text>
<polygon fill="none" stroke="#000000" points="548.336,-57 548.336,-77 627.336,-77 627.336,-57 548.336,-57"/>
<text text-anchor="start" x="553.336" y="-63.9" font-family="Times,serif" font-size="9.00" fill="#000000">userId: ObjectID</text>
<polygon fill="none" stroke="#000000" points="548.336,-37 548.336,-57 627.336,-57 627.336,-37 548.336,-37"/>
<text text-anchor="start" x="553.336" y="-43.9" font-family="Times,serif" font-size="9.00" fill="#000000">_id: ObjectID</text>
<polygon fill="none" stroke="#000000" points="548.336,-17 548.336,-37 627.336,-37 627.336,-17 548.336,-17"/>
<text text-anchor="start" x="553.336" y="-23.9" font-family="Times,serif" font-size="9.00" fill="#000000">__v: Number</text>
</g>
<!-- lotteries&#45;&gt;tickets -->
<g id="edge2" class="edge">
<title>lotteries:13&#45;&gt;tickets:3</title>
<path fill="none" stroke="#000000" stroke-dasharray="5,2" d="M389.533,-280C445.0741,-280 492.7949,-87 548.336,-87"/>
<text text-anchor="middle" x="468.6845" y="-256.2" font-family="Times,serif" font-size="14.00" fill="#000000">lotteries&#45;tickets</text>
<text text-anchor="middle" x="543.2827" y="-74.4" font-family="Times,serif" font-size="14.00" fill="#000000">N</text>
<text text-anchor="middle" x="393.033" y="-267.4" font-family="Times,serif" font-size="14.00" fill="#000000">1</text>
</g>
<!-- stations -->
<g id="node2" class="node">
<title>stations</title>
<polygon fill="#4477c9" stroke="transparent" points="0,-510 0,-728 122,-728 122,-510 0,-510"/>
<polygon fill="#add8e6" stroke="transparent" points="0,-710 0,-728 122,-728 122,-710 0,-710"/>
<polygon fill="none" stroke="#000000" points="0,-710 0,-728 122,-728 122,-710 0,-710"/>
<text text-anchor="start" x="45.0007" y="-716.9" font-family="Times,serif" font-weight="bold" font-style="italic" font-size="9.00" fill="#000000"> stations </text>
<polygon fill="none" stroke="#000000" points="0,-690 0,-710 122,-710 122,-690 0,-690"/>
<text text-anchor="start" x="5" y="-696.9" font-family="Times,serif" font-size="9.00" fill="#000000">name: String</text>
<polygon fill="none" stroke="#000000" points="0,-670 0,-690 122,-690 122,-670 0,-670"/>
<text text-anchor="start" x="5" y="-676.9" font-family="Times,serif" font-size="9.00" fill="#000000">fullName: String</text>
<polygon fill="none" stroke="#000000" points="0,-650 0,-670 122,-670 122,-650 0,-650"/>
<text text-anchor="start" x="5" y="-656.9" font-family="Times,serif" font-size="9.00" fill="#000000">baseUrlAPI: String</text>
<polygon fill="none" stroke="#000000" points="0,-630 0,-650 122,-650 122,-630 0,-630"/>
<text text-anchor="start" x="5" y="-636.9" font-family="Times,serif" font-size="9.00" fill="#000000">open.weekDay: Array</text>
<polygon fill="none" stroke="#000000" points="0,-610 0,-630 122,-630 122,-610 0,-610"/>
<text text-anchor="start" x="5" y="-616.9" font-family="Times,serif" font-size="9.00" fill="#000000">open.time: String</text>
<polygon fill="none" stroke="#000000" points="0,-590 0,-610 122,-610 122,-590 0,-590"/>
<text text-anchor="start" x="5" y="-596.9" font-family="Times,serif" font-size="9.00" fill="#000000">descriptions.address: String</text>
<polygon fill="none" stroke="#000000" points="0,-570 0,-590 122,-590 122,-570 0,-570"/>
<text text-anchor="start" x="4.7572" y="-576.9" font-family="Times,serif" font-size="9.00" fill="#000000">descriptions.phoneNum: String</text>
<polygon fill="none" stroke="#000000" points="0,-550 0,-570 122,-570 122,-550 0,-550"/>
<text text-anchor="start" x="5" y="-556.9" font-family="Times,serif" font-size="9.00" fill="#000000">descriptions.webSite: String</text>
<polygon fill="none" stroke="#000000" points="0,-530 0,-550 122,-550 122,-530 0,-530"/>
<text text-anchor="start" x="5" y="-536.9" font-family="Times,serif" font-size="9.00" fill="#000000">_id: ObjectID</text>
<polygon fill="none" stroke="#000000" points="0,-510 0,-530 122,-530 122,-510 0,-510"/>
<text text-anchor="start" x="5" y="-516.9" font-family="Times,serif" font-size="9.00" fill="#000000">__v: Number</text>
</g>
<!-- stations&#45;&gt;lotteries -->
<g id="edge1" class="edge">
<title>stations:8&#45;&gt;lotteries:0</title>
<path fill="none" stroke="#000000" stroke-dasharray="5,2" d="M122,-540C195.348,-540 213.685,-540 287.033,-540"/>
<text text-anchor="middle" x="204.2665" y="-544.2" font-family="Times,serif" font-size="14.00" fill="#000000">stations&#45;lotteries</text>
<text text-anchor="middle" x="281.9797" y="-544.2" font-family="Times,serif" font-size="14.00" fill="#000000">N</text>
<text text-anchor="middle" x="125.5" y="-527.4" font-family="Times,serif" font-size="14.00" fill="#000000">1</text>
</g>
<!-- users -->
<g id="node4" class="node">
<title>users</title>
<polygon fill="#4477c9" stroke="transparent" points="300.533,0 300.533,-178 375.533,-178 375.533,0 300.533,0"/>
<polygon fill="#add8e6" stroke="transparent" points="301.033,-160 301.033,-178 376.033,-178 376.033,-160 301.033,-160"/>
<polygon fill="none" stroke="#000000" points="301.033,-160 301.033,-178 376.033,-178 376.033,-160 301.033,-160"/>
<text text-anchor="start" x="327.0373" y="-166.9" font-family="Times,serif" font-weight="bold" font-style="italic" font-size="9.00" fill="#000000"> users </text>
<polygon fill="none" stroke="#000000" points="301.033,-140 301.033,-160 376.033,-160 376.033,-140 301.033,-140"/>
<text text-anchor="start" x="306.033" y="-146.9" font-family="Times,serif" font-size="9.00" fill="#000000">email: String</text>
<polygon fill="none" stroke="#000000" points="301.033,-120 301.033,-140 376.033,-140 376.033,-120 301.033,-120"/>
<text text-anchor="start" x="306.033" y="-126.9" font-family="Times,serif" font-size="9.00" fill="#000000">name: String</text>
<polygon fill="none" stroke="#000000" points="301.033,-100 301.033,-120 376.033,-120 376.033,-100 301.033,-100"/>
<text text-anchor="start" x="306.033" y="-106.9" font-family="Times,serif" font-size="9.00" fill="#000000">password: String</text>
<polygon fill="none" stroke="#000000" points="301.033,-80 301.033,-100 376.033,-100 376.033,-80 301.033,-80"/>
<text text-anchor="start" x="305.6605" y="-86.9" font-family="Times,serif" font-size="9.00" fill="#000000">isAdmin: Boolean</text>
<polygon fill="none" stroke="#000000" points="301.033,-60 301.033,-80 376.033,-80 376.033,-60 301.033,-60"/>
<text text-anchor="start" x="306.033" y="-66.9" font-family="Times,serif" font-size="9.00" fill="#000000">imgUrl: String</text>
<polygon fill="none" stroke="#000000" points="301.033,-40 301.033,-60 376.033,-60 376.033,-40 301.033,-40"/>
<text text-anchor="start" x="306.033" y="-46.9" font-family="Times,serif" font-size="9.00" fill="#000000">history: Array</text>
<polygon fill="none" stroke="#000000" points="301.033,-20 301.033,-40 376.033,-40 376.033,-20 301.033,-20"/>
<text text-anchor="start" x="306.033" y="-26.9" font-family="Times,serif" font-size="9.00" fill="#000000">_id: ObjectID</text>
<polygon fill="none" stroke="#000000" points="301.033,0 301.033,-20 376.033,-20 376.033,0 301.033,0"/>
<text text-anchor="start" x="306.033" y="-6.9" font-family="Times,serif" font-size="9.00" fill="#000000">__v: Number</text>
</g>
<!-- users&#45;&gt;tickets -->
<g id="edge3" class="edge">
<title>users:6&#45;&gt;tickets:4</title>
<path fill="none" stroke="#000000" stroke-dasharray="5,2" d="M376.033,-30C454.3578,-30 470.0112,-67 548.336,-67"/>
<text text-anchor="middle" x="468.6845" y="-68.2" font-family="Times,serif" font-size="14.00" fill="#000000">users&#45;tickets</text>
<text text-anchor="middle" x="543.2827" y="-54.4" font-family="Times,serif" font-size="14.00" fill="#000000">N</text>
<text text-anchor="middle" x="379.533" y="-17.4" font-family="Times,serif" font-size="14.00" fill="#000000">1</text>
</g>
</g>
</svg>
