<?xml version="1.0" encoding="UTF-8" standalone="no"?>
<!DOCTYPE svg PUBLIC "-//W3C//DTD SVG 1.1//EN"
 "http://www.w3.org/Graphics/SVG/1.1/DTD/svg11.dtd">
<!-- Generated by graphviz version 2.40.1 (20161225.0304)
 -->
<!-- Title: %0 Pages: 1 -->
<svg width="915pt" height="1036pt"
 viewBox="0.00 0.00 914.84 1036.00" xmlns="http://www.w3.org/2000/svg" xmlns:xlink="http://www.w3.org/1999/xlink">
<g id="graph0" class="graph" transform="scale(1 1) rotate(0) translate(144 892)">
<title>%0</title>
<polygon fill="#ffffff" stroke="transparent" points="-144,144 -144,-892 770.836,-892 770.836,144 -144,144"/>
<!-- lotteries -->
<g id="node1" class="node">
<title>lotteries</title>
<polygon fill="#4477c9" stroke="transparent" points="286.533,-20 286.533,-338 389.533,-338 389.533,-20 286.533,-20"/>
<polygon fill="#add8e6" stroke="transparent" points="287.033,-320 287.033,-338 390.033,-338 390.033,-320 287.033,-320"/>
<polygon fill="none" stroke="#000000" points="287.033,-320 287.033,-338 390.033,-338 390.033,-320 287.033,-320"/>
<text text-anchor="start" x="321.7876" y="-326.9" font-family="Times,serif" font-weight="bold" font-style="italic" font-size="9.00" fill="#000000"> lotteries </text>
<polygon fill="none" stroke="#000000" points="287.033,-300 287.033,-320 390.033,-320 390.033,-300 287.033,-300"/>
<text text-anchor="start" x="292.033" y="-306.9" font-family="Times,serif" font-size="9.00" fill="#000000">stationId: ObjectID</text>
<polygon fill="none" stroke="#000000" points="287.033,-280 287.033,-300 390.033,-300 390.033,-280 287.033,-280"/>
<text text-anchor="start" x="292.033" y="-286.9" font-family="Times,serif" font-size="9.00" fill="#000000">date: String</text>
<polygon fill="none" stroke="#000000" points="287.033,-260 287.033,-280 390.033,-280 390.033,-260 287.033,-260"/>
<text text-anchor="start" x="292.033" y="-266.9" font-family="Times,serif" font-size="9.00" fill="#000000">imgUrl: String</text>
<polygon fill="none" stroke="#000000" points="287.033,-240 287.033,-260 390.033,-260 390.033,-240 287.033,-240"/>
<text text-anchor="start" x="292.033" y="-246.9" font-family="Times,serif" font-size="9.00" fill="#000000">result.jackpot: Array</text>
<polygon fill="none" stroke="#000000" points="287.033,-220 287.033,-240 390.033,-240 390.033,-220 287.033,-220"/>
<text text-anchor="start" x="292.033" y="-226.9" font-family="Times,serif" font-size="9.00" fill="#000000">result.signJackpot: Array</text>
<polygon fill="none" stroke="#000000" points="287.033,-200 287.033,-220 390.033,-220 390.033,-200 287.033,-200"/>
<text text-anchor="start" x="292.033" y="-206.9" font-family="Times,serif" font-size="9.00" fill="#000000">result.firstNum: Array</text>
<polygon fill="none" stroke="#000000" points="287.033,-180 287.033,-200 390.033,-200 390.033,-180 287.033,-180"/>
<text text-anchor="start" x="292.033" y="-186.9" font-family="Times,serif" font-size="9.00" fill="#000000">result.secondNum: Array</text>
<polygon fill="none" stroke="#000000" points="287.033,-160 287.033,-180 390.033,-180 390.033,-160 287.033,-160"/>
<text text-anchor="start" x="292.033" y="-166.9" font-family="Times,serif" font-size="9.00" fill="#000000">result.thirdNum: Array</text>
<polygon fill="none" stroke="#000000" points="287.033,-140 287.033,-160 390.033,-160 390.033,-140 287.033,-140"/>
<text text-anchor="start" x="292.033" y="-146.9" font-family="Times,serif" font-size="9.00" fill="#000000">result.fourthNum: Array</text>
<polygon fill="none" stroke="#000000" points="287.033,-120 287.033,-140 390.033,-140 390.033,-120 287.033,-120"/>
<text text-anchor="start" x="292.033" y="-126.9" font-family="Times,serif" font-size="9.00" fill="#000000">result.fifthNum: Array</text>
<polygon fill="none" stroke="#000000" points="287.033,-100 287.033,-120 390.033,-120 390.033,-100 287.033,-100"/>
<text text-anchor="start" x="292.033" y="-106.9" font-family="Times,serif" font-size="9.00" fill="#000000">result.sixthNum: Array</text>
<polygon fill="none" stroke="#000000" points="287.033,-80 287.033,-100 390.033,-100 390.033,-80 287.033,-80"/>
<text text-anchor="start" x="291.7987" y="-86.9" font-family="Times,serif" font-size="9.00" fill="#000000">result.seventhNum: Array</text>
<polygon fill="none" stroke="#000000" points="287.033,-60 287.033,-80 390.033,-80 390.033,-60 287.033,-60"/>
<text text-anchor="start" x="292.033" y="-66.9" font-family="Times,serif" font-size="9.00" fill="#000000">result.eighthNum: Array</text>
<polygon fill="none" stroke="#000000" points="287.033,-40 287.033,-60 390.033,-60 390.033,-40 287.033,-40"/>
<text text-anchor="start" x="292.033" y="-46.9" font-family="Times,serif" font-size="9.00" fill="#000000">_id: ObjectID</text>
<polygon fill="none" stroke="#000000" points="287.033,-20 287.033,-40 390.033,-40 390.033,-20 287.033,-20"/>
<text text-anchor="start" x="292.033" y="-26.9" font-family="Times,serif" font-size="9.00" fill="#000000">__v: Number</text>
</g>
<!-- tickets -->
<g id="node3" class="node">
<title>tickets</title>
<polygon fill="#4477c9" stroke="transparent" points="547.836,0 547.836,-138 626.836,-138 626.836,0 547.836,0"/>
<polygon fill="#add8e6" stroke="transparent" points="548.336,-120 548.336,-138 627.336,-138 627.336,-120 548.336,-120"/>
<polygon fill="none" stroke="#000000" points="548.336,-120 548.336,-138 627.336,-138 627.336,-120 548.336,-120"/>
<text text-anchor="start" x="573.8392" y="-126.9" font-family="Times,serif" font-weight="bold" font-style="italic" font-size="9.00" fill="#000000"> tickets </text>
<polygon fill="none" stroke="#000000" points="548.336,-100 548.336,-120 627.336,-120 627.336,-100 548.336,-100"/>
<text text-anchor="start" x="553.336" y="-106.9" font-family="Times,serif" font-size="9.00" fill="#000000">ticket: String</text>
<polygon fill="none" stroke="#000000" points="548.336,-80 548.336,-100 627.336,-100 627.336,-80 548.336,-80"/>
<text text-anchor="start" x="553.336" y="-86.9" font-family="Times,serif" font-size="9.00" fill="#000000">date: String</text>
<polygon fill="none" stroke="#000000" points="548.336,-60 548.336,-80 627.336,-80 627.336,-60 548.336,-60"/>
<text text-anchor="start" x="553.336" y="-66.9" font-family="Times,serif" font-size="9.00" fill="#000000">result: Boolean</text>
<polygon fill="none" stroke="#000000" points="548.336,-40 548.336,-60 627.336,-60 627.336,-40 548.336,-40"/>
<text text-anchor="start" x="553.2238" y="-46.9" font-family="Times,serif" font-size="9.00" fill="#000000">lotteryId: ObjectID</text>
<polygon fill="none" stroke="#000000" points="548.336,-20 548.336,-40 627.336,-40 627.336,-20 548.336,-20"/>
<text text-anchor="start" x="553.336" y="-26.9" font-family="Times,serif" font-size="9.00" fill="#000000">_id: ObjectID</text>
<polygon fill="none" stroke="#000000" points="548.336,0 548.336,-20 627.336,-20 627.336,0 548.336,0"/>
<text text-anchor="start" x="553.336" y="-6.9" font-family="Times,serif" font-size="9.00" fill="#000000">__v: Number</text>
</g>
<!-- lotteries&#45;&gt;tickets -->
<g id="edge2" class="edge">
<title>lotteries:13&#45;&gt;tickets:3</title>
<path fill="none" stroke="#000000" stroke-dasharray="5,2" d="M389.533,-50C460.1121,-50 477.7569,-50 548.336,-50"/>
<text text-anchor="middle" x="468.6845" y="-54.2" font-family="Times,serif" font-size="14.00" fill="#000000">lotteries&#45;tickets</text>
<text text-anchor="middle" x="543.2827" y="-37.4" font-family="Times,serif" font-size="14.00" fill="#000000">N</text>
<text text-anchor="middle" x="393.033" y="-37.4" font-family="Times,serif" font-size="14.00" fill="#000000">1</text>
</g>
<!-- stations -->
<g id="node2" class="node">
<title>stations</title>
<polygon fill="#4477c9" stroke="transparent" points="0,-280 0,-498 122,-498 122,-280 0,-280"/>
<polygon fill="#add8e6" stroke="transparent" points="0,-480 0,-498 122,-498 122,-480 0,-480"/>
<polygon fill="none" stroke="#000000" points="0,-480 0,-498 122,-498 122,-480 0,-480"/>
<text text-anchor="start" x="45.0007" y="-486.9" font-family="Times,serif" font-weight="bold" font-style="italic" font-size="9.00" fill="#000000"> stations </text>
<polygon fill="none" stroke="#000000" points="0,-460 0,-480 122,-480 122,-460 0,-460"/>
<text text-anchor="start" x="5" y="-466.9" font-family="Times,serif" font-size="9.00" fill="#000000">name: String</text>
<polygon fill="none" stroke="#000000" points="0,-440 0,-460 122,-460 122,-440 0,-440"/>
<text text-anchor="start" x="5" y="-446.9" font-family="Times,serif" font-size="9.00" fill="#000000">fullName: String</text>
<polygon fill="none" stroke="#000000" points="0,-420 0,-440 122,-440 122,-420 0,-420"/>
<text text-anchor="start" x="5" y="-426.9" font-family="Times,serif" font-size="9.00" fill="#000000">baseUrlAPI: String</text>
<polygon fill="none" stroke="#000000" points="0,-400 0,-420 122,-420 122,-400 0,-400"/>
<text text-anchor="start" x="5" y="-406.9" font-family="Times,serif" font-size="9.00" fill="#000000">open.weekDay: Array</text>
<polygon fill="none" stroke="#000000" points="0,-380 0,-400 122,-400 122,-380 0,-380"/>
<text text-anchor="start" x="5" y="-386.9" font-family="Times,serif" font-size="9.00" fill="#000000">open.time: String</text>
<polygon fill="none" stroke="#000000" points="0,-360 0,-380 122,-380 122,-360 0,-360"/>
<text text-anchor="start" x="5" y="-366.9" font-family="Times,serif" font-size="9.00" fill="#000000">descriptions.address: String</text>
<polygon fill="none" stroke="#000000" points="0,-340 0,-360 122,-360 122,-340 0,-340"/>
<text text-anchor="start" x="4.7572" y="-346.9" font-family="Times,serif" font-size="9.00" fill="#000000">descriptions.phoneNum: String</text>
<polygon fill="none" stroke="#000000" points="0,-320 0,-340 122,-340 122,-320 0,-320"/>
<text text-anchor="start" x="5" y="-326.9" font-family="Times,serif" font-size="9.00" fill="#000000">descriptions.webSite: String</text>
<polygon fill="none" stroke="#000000" points="0,-300 0,-320 122,-320 122,-300 0,-300"/>
<text text-anchor="start" x="5" y="-306.9" font-family="Times,serif" font-size="9.00" fill="#000000">_id: ObjectID</text>
<polygon fill="none" stroke="#000000" points="0,-280 0,-300 122,-300 122,-280 0,-280"/>
<text text-anchor="start" x="5" y="-286.9" font-family="Times,serif" font-size="9.00" fill="#000000">__v: Number</text>
</g>
<!-- stations&#45;&gt;lotteries -->
<g id="edge1" class="edge">
<title>stations:8&#45;&gt;lotteries:0</title>
<path fill="none" stroke="#000000" stroke-dasharray="5,2" d="M122,-310C195.348,-310 213.685,-310 287.033,-310"/>
<text text-anchor="middle" x="204.2665" y="-314.2" font-family="Times,serif" font-size="14.00" fill="#000000">stations&#45;lotteries</text>
<text text-anchor="middle" x="281.9797" y="-314.2" font-family="Times,serif" font-size="14.00" fill="#000000">N</text>
<text text-anchor="middle" x="125.5" y="-297.4" font-family="Times,serif" font-size="14.00" fill="#000000">1</text>
</g>
<!-- users -->
<g id="node4" class="node">
<title>users</title>
<polygon fill="#4477c9" stroke="transparent" points="23.5,-570 23.5,-748 98.5,-748 98.5,-570 23.5,-570"/>
<polygon fill="#add8e6" stroke="transparent" points="24,-730 24,-748 99,-748 99,-730 24,-730"/>
<polygon fill="none" stroke="#000000" points="24,-730 24,-748 99,-748 99,-730 24,-730"/>
<text text-anchor="start" x="50.0043" y="-736.9" font-family="Times,serif" font-weight="bold" font-style="italic" font-size="9.00" fill="#000000"> users </text>
<polygon fill="none" stroke="#000000" points="24,-710 24,-730 99,-730 99,-710 24,-710"/>
<text text-anchor="start" x="29" y="-716.9" font-family="Times,serif" font-size="9.00" fill="#000000">email: String</text>
<polygon fill="none" stroke="#000000" points="24,-690 24,-710 99,-710 99,-690 24,-690"/>
<text text-anchor="start" x="29" y="-696.9" font-family="Times,serif" font-size="9.00" fill="#000000">name: String</text>
<polygon fill="none" stroke="#000000" points="24,-670 24,-690 99,-690 99,-670 24,-670"/>
<text text-anchor="start" x="29" y="-676.9" font-family="Times,serif" font-size="9.00" fill="#000000">password: String</text>
<polygon fill="none" stroke="#000000" points="24,-650 24,-670 99,-670 99,-650 24,-650"/>
<text text-anchor="start" x="28.6275" y="-656.9" font-family="Times,serif" font-size="9.00" fill="#000000">isAdmin: Boolean</text>
<polygon fill="none" stroke="#000000" points="24,-630 24,-650 99,-650 99,-630 24,-630"/>
<text text-anchor="start" x="29" y="-636.9" font-family="Times,serif" font-size="9.00" fill="#000000">imgUrl: String</text>
<polygon fill="none" stroke="#000000" points="24,-610 24,-630 99,-630 99,-610 24,-610"/>
<text text-anchor="start" x="29" y="-616.9" font-family="Times,serif" font-size="9.00" fill="#000000">history: Array</text>
<polygon fill="none" stroke="#000000" points="24,-590 24,-610 99,-610 99,-590 24,-590"/>
<text text-anchor="start" x="29" y="-596.9" font-family="Times,serif" font-size="9.00" fill="#000000">_id: ObjectID</text>
<polygon fill="none" stroke="#000000" points="24,-570 24,-590 99,-590 99,-570 24,-570"/>
<text text-anchor="start" x="29" y="-576.9" font-family="Times,serif" font-size="9.00" fill="#000000">__v: Number</text>
</g>
</g>
</svg>
